<svg xmlns="http://www.w3.org/2000/svg" viewBox="0 0 1280 360" width="1280" height="360" role="img" aria-label="Samsung Z Fold — Bluetooth Diagnostic &amp; Rescue">
  <defs>
    <linearGradient id="page" x1="0" y1="0" x2="1" y2="1">
      <stop offset="0" stop-color="#0A1426"/>
      <stop offset="1" stop-color="#0E1B33"/>
    </linearGradient>
    <linearGradient id="tile" x1="0" y1="0" x2="0" y2="1">
      <stop offset="0" stop-color="#2BA6FF"/>
      <stop offset="1" stop-color="#0B53D0"/>
    </linearGradient>
    <radialGradient id="tglow" cx="0.5" cy="0.3" r="0.8">
      <stop offset="0" stop-color="#ffffff" stop-opacity="0.28"/>
      <stop offset="1" stop-color="#ffffff" stop-opacity="0"/>
    </radialGradient>
    <radialGradient id="aura" cx="0.16" cy="0.4" r="0.5">
      <stop offset="0" stop-color="#1E63D8" stop-opacity="0.45"/>
      <stop offset="1" stop-color="#1E63D8" stop-opacity="0"/>
    </radialGradient>
  </defs>

  <!-- background -->
  <rect width="1280" height="360" rx="28" fill="url(#page)"/>
  <rect width="1280" height="360" rx="28" fill="url(#aura)"/>

  <!-- logo tile (left) -->
  <g transform="translate(64,72)">
    <rect width="216" height="216" rx="48" fill="url(#tile)"/>
    <rect width="216" height="216" rx="48" fill="url(#tglow)"/>
    <rect x="103" y="32" width="9" height="152" rx="4.5" fill="#ffffff" opacity="0.12"/>
    <g transform="translate(63,63) scale(3.75)" fill="#ffffff">
      <path d="M17.71 7.71L12 2h-1v7.59L6.41 5 5 6.41 10.59 12 5 17.59 6.41 19 11 14.41V22h1l5.71-5.71-4.3-4.29 4.3-4.29zM13 5.83l1.88 1.88L13 9.59V5.83zm1.88 10.46L13 18.17v-3.76l1.88 1.88z"/>
    </g>
    <polyline points="40,182 74,182 86,164 100,196 113,176 128,182 176,182"
              fill="none" stroke="#5BF0CE" stroke-width="5" stroke-linecap="round" stroke-linejoin="round"/>
  </g>

  <!-- title block (right) -->
  <g font-family="-apple-system, BlinkMacSystemFont, 'Segoe UI', Roboto, Helvetica, Arial, sans-serif">
    <text x="324" y="150" font-size="62" font-weight="800" fill="#FFFFFF" letter-spacing="-1">Galaxy · Bluetooth Rescue</text>
    <text x="326" y="200" font-size="27" font-weight="500" fill="#9FB6D6">Diagnose &amp; repair Bluetooth that won't stay on after a One UI update.</text>

    <!-- feature chips -->
    <g font-size="19" font-weight="600" fill="#BFE0FF" text-anchor="middle">
      <rect x="324" y="232" width="300" height="40" rx="20" fill="#13294F" stroke="#27508F" stroke-width="1.5"/>
      <text x="474" y="258">adb · non-destructive</text>
      <rect x="644" y="232" width="324" height="40" rx="20" fill="#13294F" stroke="#27508F" stroke-width="1.5"/>
      <text x="806" y="258">software vs. dead-radio</text>
      <rect x="988" y="232" width="240" height="40" rx="20" fill="#13294F" stroke="#27508F" stroke-width="1.5"/>
      <text x="1108" y="258">ARB-safe reflash</text>
    </g>
  </g>
</svg>
